<svg width="840" height="687" viewBox="0 0 840 687" fill="none" xmlns="http://www.w3.org/2000/svg">
<rect x="60" y="909.863" width="120" height="997.881" transform="rotate(-120 60 909.863)" fill="url(#paint0_linear_1_31)"/>
<g opacity="0.3">
<path opacity="0.3" d="M719.934 556.146V547.437L717.544 546.095C716.864 550.197 712.026 552.919 707.965 553.482L680.432 569.598L668.423 573.933L630.048 554.124L630.941 553.619C627.658 552.083 625.889 548.584 624.121 545.376L621.537 546.912L620.002 547.359V556.282C620.104 557.296 620.469 558.266 621.062 559.095C621.656 559.924 622.456 560.583 623.383 561.006L661.875 583.206C664.407 584.481 667.202 585.146 670.036 585.146C672.871 585.146 675.666 584.481 678.197 583.206L716.631 561.006C717.542 560.588 718.329 559.943 718.918 559.133C719.507 558.323 719.877 557.374 719.993 556.379C720.002 556.302 720.002 556.223 719.993 556.146H719.934Z" fill="url(#paint1_linear_1_31)"/>
<path opacity="0.3" d="M707.964 553.482L680.431 569.598L669.977 573.37V585.15C672.819 585.209 675.628 584.54 678.138 583.206L716.572 561.006C717.483 560.588 718.27 559.943 718.859 559.133C719.448 558.323 719.818 557.374 719.934 556.379C719.944 556.302 719.944 556.223 719.934 556.146V547.437L717.738 546.212H717.505C716.767 550.255 711.987 552.841 707.964 553.482Z" fill="#0F054C"/>
<path opacity="0.3" d="M661.876 574.342L623.442 552.141C618.934 549.556 618.934 545.318 623.442 542.713L661.876 520.512C664.407 519.237 667.202 518.573 670.037 518.573C672.871 518.573 675.666 519.237 678.198 520.512L716.632 542.713C721.12 545.318 721.12 549.556 716.632 552.141L678.198 574.342C675.669 575.626 672.873 576.295 670.037 576.295C667.201 576.295 664.405 575.626 661.876 574.342Z" fill="url(#paint2_linear_1_31)"/>
<g opacity="0.3">
<path opacity="0.3" d="M661.876 574.342L623.442 552.141C618.934 549.556 618.934 545.318 623.442 542.713L661.876 520.512C664.407 519.237 667.202 518.573 670.037 518.573C672.871 518.573 675.666 519.237 678.198 520.512L716.632 542.713C721.12 545.318 721.12 549.556 716.632 552.141L678.198 574.342C675.669 575.626 672.873 576.295 670.037 576.295C667.201 576.295 664.405 575.626 661.876 574.342Z" fill="#0F054C"/>
</g>
</g>
<path d="M669.977 546.29C667.454 546.335 664.96 545.74 662.73 544.56L624.296 522.359C623.388 522.04 622.602 521.447 622.045 520.662C621.489 519.877 621.19 518.938 621.19 517.975C621.19 517.013 621.489 516.074 622.045 515.289C622.602 514.504 623.388 513.91 624.296 513.592L662.73 491.391C664.975 490.26 667.454 489.67 669.968 489.67C672.482 489.67 674.96 490.26 677.206 491.391L715.659 513.592C716.567 513.91 717.353 514.504 717.909 515.289C718.466 516.074 718.764 517.013 718.764 517.975C718.764 518.938 718.466 519.877 717.909 520.662C717.353 521.447 716.567 522.04 715.659 522.359L677.225 544.56C674.994 545.74 672.501 546.335 669.977 546.29ZM669.977 490.341C667.571 490.293 665.191 490.855 663.06 491.974L624.626 514.175C623.828 514.44 623.134 514.95 622.642 515.632C622.15 516.314 621.885 517.134 621.885 517.975C621.885 518.817 622.15 519.636 622.642 520.319C623.134 521.001 623.828 521.511 624.626 521.776L663.06 543.976C665.202 545.059 667.568 545.624 669.968 545.624C672.367 545.624 674.734 545.059 676.875 543.976L715.309 521.737C716.107 521.472 716.802 520.962 717.294 520.28C717.786 519.598 718.051 518.778 718.051 517.936C718.051 517.095 717.786 516.275 717.294 515.593C716.802 514.911 716.107 514.401 715.309 514.136L676.875 491.935C674.747 490.832 672.374 490.283 669.977 490.341Z" fill="#42E8E0"/>
<path opacity="0.4" d="M719.934 509.451V496.29L717.544 494.949C716.864 499.07 712.026 501.772 707.965 502.336L680.432 518.452L668.423 522.787L630.048 502.977L630.941 502.472C627.658 500.936 625.889 497.437 624.121 494.229L621.537 495.765L620.002 496.212V509.587C620.104 510.601 620.469 511.571 621.062 512.4C621.656 513.229 622.456 513.888 623.383 514.311L661.875 536.511C664.404 537.795 667.2 538.465 670.036 538.465C672.872 538.465 675.668 537.795 678.197 536.511L716.631 514.311C717.542 513.893 718.329 513.248 718.918 512.438C719.507 511.628 719.877 510.679 719.993 509.684C720.002 509.607 720.002 509.528 719.993 509.451H719.934Z" fill="#42E8E0"/>
<path d="M719.934 497.748V489.039L717.544 487.697C716.864 491.819 712.026 494.521 707.965 495.085L680.432 511.2L668.423 515.535L630.048 495.726L630.941 495.221C627.658 493.685 625.889 490.186 624.121 486.978L621.537 488.533L620.002 488.961V497.884C620.104 498.898 620.469 499.868 621.062 500.697C621.656 501.526 622.456 502.185 623.383 502.608L661.875 524.808C664.404 526.092 667.2 526.762 670.036 526.762C672.872 526.762 675.668 526.092 678.197 524.808L716.631 502.608C717.542 502.19 718.329 501.545 718.918 500.735C719.507 499.925 719.877 498.976 719.993 497.981C720.002 497.904 720.002 497.825 719.993 497.748H719.934Z" fill="url(#paint3_linear_1_31)"/>
<path opacity="0.3" d="M707.964 495.084L680.431 511.2L669.977 514.971V526.752C672.819 526.81 675.628 526.141 678.138 524.808L716.572 502.607C717.483 502.19 718.27 501.545 718.859 500.735C719.448 499.924 719.818 498.976 719.934 497.981C719.944 497.903 719.944 497.825 719.934 497.747V489.038L717.738 487.813H717.505C716.767 491.857 711.987 494.52 707.964 495.084Z" fill="#0F054C"/>
<path d="M661.876 515.904L623.442 493.704C618.934 491.099 618.934 486.861 623.442 484.275L661.876 462.133C664.405 460.849 667.201 460.18 670.037 460.18C672.873 460.18 675.669 460.849 678.198 462.133L716.632 484.334C721.12 486.919 721.12 491.157 716.632 493.762L678.139 515.904C675.615 517.17 672.831 517.829 670.008 517.829C667.184 517.829 664.4 517.17 661.876 515.904Z" fill="url(#paint4_linear_1_31)"/>
<path d="M716.572 493.763L678.138 515.905C675.606 517.18 672.811 517.844 669.977 517.844C667.143 517.844 664.348 517.18 661.816 515.905L623.382 493.705C622.543 493.309 621.806 492.727 621.227 492.002C620.647 491.278 620.241 490.43 620.04 489.525C619.768 491.469 620.895 493.413 623.382 494.774L661.874 517.033C664.403 518.317 667.199 518.986 670.035 518.986C672.871 518.986 675.667 518.317 678.196 517.033L716.63 494.832C717.656 494.405 718.526 493.672 719.121 492.733C719.715 491.794 720.006 490.694 719.953 489.583C719.746 490.492 719.333 491.341 718.747 492.066C718.161 492.79 717.417 493.371 716.572 493.763Z" fill="white"/>
<path d="M650.677 488L563.253 435.683L535.458 451.718H535.135L481 419.81L481.323 419L535.458 450.746L563.253 434.711L563.899 435.035L651 487.19L650.677 488Z" fill="url(#paint5_linear_1_31)"/>
<g opacity="0.3">
<path opacity="0.3" d="M216 555.204V546.494L213.589 545.153C212.909 549.274 208.068 551.977 204.024 552.54L176.459 568.656L164.445 572.991L126.051 553.182L126.945 552.676C123.659 551.141 121.89 547.641 120.121 544.434L117.536 545.989L116 546.417V555.34C116.102 556.354 116.468 557.324 117.061 558.153C117.655 558.982 118.455 559.641 119.383 560.064L157.835 582.264C160.365 583.548 163.162 584.218 166 584.218C168.837 584.218 171.634 583.548 174.165 582.264L212.617 560.064C213.531 559.649 214.323 559.005 214.916 558.194C215.508 557.384 215.882 556.434 216 555.437C216 555.437 216 555.281 216 555.204Z" fill="url(#paint6_linear_1_31)"/>
<path opacity="0.3" d="M204.024 552.578L176.458 568.694L165.999 572.466V584.246C168.842 584.305 171.653 583.636 174.164 582.302L212.616 560.102C213.531 559.687 214.323 559.043 214.915 558.233C215.508 557.422 215.881 556.472 215.999 555.475C215.999 555.475 215.999 555.319 215.999 555.242V546.533L213.783 545.308H213.55C212.811 549.313 208.029 551.976 204.024 552.578Z" fill="#0F054C"/>
<path opacity="0.3" d="M157.835 573.419L119.383 551.218C114.872 548.613 114.872 544.375 119.383 541.79L157.835 519.531C160.365 518.247 163.162 517.577 166 517.577C168.837 517.577 171.634 518.247 174.165 519.531L212.617 541.731C217.108 544.317 217.108 548.555 212.617 551.16L174.165 573.419C171.632 574.694 168.835 575.358 166 575.358C163.164 575.358 160.368 574.694 157.835 573.419Z" fill="url(#paint7_linear_1_31)"/>
<g opacity="0.3">
<path opacity="0.3" d="M157.835 573.419L119.383 551.218C114.873 548.613 114.873 544.375 119.383 541.79L157.835 519.531C160.365 518.247 163.163 517.577 166 517.577C168.838 517.577 171.635 518.247 174.165 519.531L212.617 541.731C217.108 544.317 217.108 548.555 212.617 551.16L174.165 573.419C171.632 574.694 168.836 575.358 166 575.358C163.164 575.358 160.368 574.694 157.835 573.419Z" fill="#0F054C"/>
</g>
</g>
<path d="M166 541.11C163.474 541.165 160.977 540.569 158.749 539.379L120.296 517.179C119.395 516.856 118.615 516.262 118.064 515.479C117.513 514.696 117.217 513.762 117.217 512.805C117.217 511.847 117.513 510.913 118.064 510.13C118.615 509.347 119.395 508.754 120.296 508.431L158.749 486.23C160.996 485.09 163.48 484.495 166 484.495C168.52 484.495 171.004 485.09 173.251 486.23L211.703 508.431C212.605 508.754 213.384 509.347 213.936 510.13C214.487 510.913 214.783 511.847 214.783 512.805C214.783 513.762 214.487 514.696 213.936 515.479C213.384 516.262 212.605 516.856 211.703 517.179L173.251 539.379C171.022 540.569 168.525 541.165 166 541.11ZM159.079 538.796C161.222 539.879 163.589 540.444 165.99 540.444C168.391 540.444 170.758 539.879 172.901 538.796L211.353 516.596C212.212 516.4 212.979 515.918 213.529 515.229C214.078 514.541 214.377 513.686 214.377 512.805C214.377 511.924 214.078 511.069 213.529 510.38C212.979 509.691 212.212 509.21 211.353 509.014L172.901 486.814C170.761 485.721 168.393 485.152 165.99 485.152C163.587 485.152 161.219 485.721 159.079 486.814L120.627 509.014C119.768 509.21 119.001 509.691 118.451 510.38C117.902 511.069 117.603 511.924 117.603 512.805C117.603 513.686 117.902 514.541 118.451 515.229C119.001 515.918 119.768 516.4 120.627 516.596L159.079 538.796Z" fill="#42E8E0"/>
<path opacity="0.4" d="M216 504.29V491.11L213.589 489.768C212.909 493.89 208.068 496.592 204.024 497.155L176.458 513.271L164.445 517.587L126.05 497.778L126.945 497.272C123.659 495.736 121.89 492.237 120.121 489.03L117.536 490.585L116 491.012V504.407C116.093 505.421 116.456 506.392 117.051 507.219C117.646 508.046 118.451 508.7 119.383 509.111L157.835 531.312C160.365 532.596 163.162 533.265 166 533.265C168.837 533.265 171.634 532.596 174.165 531.312L212.617 509.111C213.531 508.696 214.323 508.052 214.916 507.242C215.508 506.431 215.882 505.482 216 504.484C216 504.484 216 504.329 216 504.251V504.29Z" fill="#42E8E0"/>
<path d="M216 492.568V483.859L213.589 482.517C212.909 486.638 208.068 489.341 204.024 489.904L176.458 506.02L164.445 510.355L126.05 490.546L126.945 490.04C123.659 488.505 121.89 485.006 120.121 481.817L117.536 483.353L116 483.781V492.723C116.105 493.734 116.472 494.7 117.066 495.525C117.659 496.35 118.458 497.006 119.383 497.428L157.835 519.628C160.365 520.912 163.162 521.582 166 521.582C168.837 521.582 171.634 520.912 174.165 519.628L212.617 497.428C213.531 497.013 214.323 496.369 214.916 495.559C215.508 494.748 215.882 493.798 216 492.801C216 492.801 216 492.645 216 492.568Z" fill="url(#paint8_linear_1_31)"/>
<path d="M157.835 510.783L119.383 488.582C114.872 485.977 114.872 481.739 119.383 479.154L157.835 456.953C160.365 455.669 163.162 455 166 455C168.837 455 171.634 455.669 174.165 456.953L212.617 479.154C217.108 481.759 217.108 485.977 212.617 488.582L174.165 510.783C171.634 512.067 168.837 512.736 166 512.736C163.162 512.736 160.365 512.067 157.835 510.783Z" fill="url(#paint9_linear_1_31)"/>
<path d="M166 506.739C163.719 506.79 161.463 506.255 159.449 505.184L129.414 487.843C128.593 487.552 127.882 487.013 127.379 486.301C126.876 485.589 126.607 484.739 126.607 483.868C126.607 482.996 126.876 482.146 127.379 481.434C127.882 480.723 128.593 480.184 129.414 479.892L159.449 462.552C161.478 461.518 163.723 460.978 166 460.978C168.277 460.978 170.522 461.518 172.551 462.552L202.586 479.892C203.408 480.184 204.118 480.723 204.621 481.434C205.124 482.146 205.394 482.996 205.394 483.868C205.394 484.739 205.124 485.589 204.621 486.301C204.118 487.013 203.408 487.552 202.586 487.843L172.551 505.184C170.537 506.255 168.281 506.79 166 506.739ZM159.779 504.601C161.704 505.579 163.832 506.089 165.99 506.089C168.149 506.089 170.277 505.579 172.201 504.601L202.256 487.26C202.977 487.032 203.607 486.581 204.054 485.971C204.501 485.361 204.742 484.624 204.742 483.868C204.742 483.112 204.501 482.375 204.054 481.765C203.607 481.155 202.977 480.703 202.256 480.476L172.201 463.154C170.277 462.176 168.149 461.666 165.99 461.666C163.832 461.666 161.704 462.176 159.779 463.154L129.744 480.495C129.069 480.789 128.485 481.257 128.051 481.851C127.617 482.446 127.349 483.145 127.276 483.878C127.352 484.612 127.62 485.312 128.054 485.91C128.487 486.507 129.07 486.979 129.744 487.28L159.779 504.601Z" fill="#5351AF"/>
<path d="M212.617 488.583L174.164 510.783C171.634 512.067 168.837 512.737 165.999 512.737C163.162 512.737 160.365 512.067 157.835 510.783L119.382 488.583C118.543 488.187 117.806 487.605 117.226 486.88C116.647 486.156 116.24 485.309 116.039 484.403C115.994 485.517 116.29 486.618 116.888 487.559C117.485 488.501 118.355 489.237 119.382 489.671L157.835 511.872C160.367 513.147 163.164 513.811 165.999 513.811C168.835 513.811 171.631 513.147 174.164 511.872L212.617 489.671C213.643 489.239 214.512 488.502 215.107 487.56C215.701 486.618 215.992 485.516 215.941 484.403C215.742 485.307 215.34 486.154 214.763 486.878C214.187 487.603 213.453 488.186 212.617 488.583Z" fill="white"/>
<path d="M170.709 503.441L257.839 453.308L285.723 468.352L286.046 468.35L340.002 437.768L339.674 437.002L285.718 467.43L257.834 452.386L257.189 452.697L170.382 502.675L170.709 503.441Z" fill="url(#paint10_linear_1_31)"/>
<g opacity="0.3">
<path opacity="0.3" d="M718.903 202.896V194.187L716.495 192.845C715.815 196.947 710.979 199.669 706.94 200.232L679.4 216.329L667.398 220.683L629.041 200.874L629.934 200.349C626.652 198.833 624.885 195.314 623.117 192.126L620.534 193.662L619 194.089V203.032C619.091 204.047 619.453 205.019 620.047 205.846C620.642 206.674 621.447 207.326 622.379 207.736L660.795 229.937C663.322 231.221 666.117 231.89 668.952 231.89C671.786 231.89 674.581 231.221 677.109 229.937L715.524 207.736C716.438 207.322 717.229 206.678 717.821 205.867C718.413 205.057 718.786 204.107 718.903 203.11V202.896Z" fill="url(#paint11_linear_1_31)"/>
<path opacity="0.3" d="M706.939 200.232L679.4 216.329L668.951 220.119V231.9C671.791 231.959 674.599 231.289 677.108 229.956L715.523 207.756C716.437 207.341 717.228 206.697 717.82 205.886C718.412 205.076 718.785 204.126 718.903 203.129V202.915V194.206L716.708 192.981H716.475C715.698 197.005 710.94 199.669 706.939 200.232Z" fill="#0F054C"/>
<path opacity="0.3" d="M660.794 221.091L622.476 198.891C617.97 196.286 617.97 192.067 622.476 189.462L660.794 167.184C663.322 165.9 666.117 165.231 668.951 165.231C671.786 165.231 674.581 165.9 677.108 167.184L715.524 189.385C720.029 191.99 720.029 196.208 715.524 198.813L677.108 221.014C674.587 222.31 671.795 222.992 668.961 223.006C666.126 223.019 663.328 222.363 660.794 221.091Z" fill="url(#paint12_linear_1_31)"/>
<g opacity="0.3">
<path opacity="0.3" d="M660.794 221.091L622.476 198.891C617.97 196.286 617.97 192.067 622.476 189.462L660.794 167.184C663.322 165.9 666.117 165.231 668.951 165.231C671.786 165.231 674.581 165.9 677.108 167.184L715.524 189.385C720.029 191.99 720.029 196.208 715.524 198.813L677.108 221.014C674.587 222.31 671.795 222.992 668.961 223.006C666.126 223.019 663.328 222.363 660.794 221.091Z" fill="#0F054C"/>
</g>
</g>
<path d="M668.953 194.498C666.431 194.543 663.938 193.948 661.708 192.768L623.293 170.567C622.386 170.248 621.6 169.655 621.044 168.87C620.488 168.085 620.189 167.146 620.189 166.183C620.189 165.221 620.488 164.282 621.044 163.497C621.6 162.712 622.386 162.118 623.293 161.8L661.708 139.599C663.956 138.467 666.437 137.878 668.953 137.878C671.468 137.878 673.949 138.467 676.197 139.599L714.612 161.8C715.519 162.118 716.305 162.712 716.861 163.497C717.417 164.282 717.716 165.221 717.716 166.183C717.716 167.146 717.417 168.085 716.861 168.87C716.305 169.655 715.519 170.248 714.612 170.567L676.197 192.768C673.967 193.948 671.475 194.543 668.953 194.498ZM668.953 138.53C666.552 138.488 664.18 139.057 662.058 140.182L623.623 162.383C622.826 162.648 622.132 163.158 621.64 163.84C621.148 164.522 620.883 165.342 620.883 166.183C620.883 167.025 621.148 167.844 621.64 168.527C622.132 169.209 622.826 169.719 623.623 169.984L662.058 192.184C664.199 193.267 666.564 193.832 668.962 193.832C671.361 193.832 673.726 193.267 675.867 192.184L714.282 169.984C715.08 169.719 715.773 169.209 716.265 168.527C716.757 167.844 717.022 167.025 717.022 166.183C717.022 165.342 716.757 164.522 716.265 163.84C715.773 163.158 715.08 162.648 714.282 162.383L675.867 140.182C673.738 139.057 671.36 138.488 668.953 138.53Z" fill="#42E8E0"/>
<path opacity="0.4" d="M718.903 157.659V144.498L716.495 143.156C715.815 147.258 710.979 149.98 706.94 150.544L679.4 166.659L667.398 171.072L629.041 151.263L629.934 150.757C626.652 149.222 624.885 145.722 623.117 142.515L620.534 144.051L619 144.498V157.873C619.124 158.883 619.51 159.844 620.12 160.659C620.73 161.474 621.542 162.115 622.476 162.519L660.795 184.68C663.322 185.964 666.117 186.634 668.952 186.634C671.786 186.634 674.581 185.964 677.109 184.68L715.524 162.48C716.438 162.065 717.229 161.421 717.821 160.611C718.413 159.8 718.786 158.85 718.903 157.853V157.62V157.659Z" fill="#42E8E0"/>
<path d="M718.903 145.956V137.247L716.495 135.905C715.815 140.007 710.979 142.729 706.94 143.292L679.4 159.408L667.398 163.743L629.041 143.856L629.934 143.351C626.652 141.815 624.885 138.316 623.117 135.108L620.534 136.644L619 137.091V146.014C619.102 147.028 619.467 147.998 620.06 148.827C620.653 149.656 621.453 150.315 622.379 150.738L660.795 173.016C663.325 174.291 666.119 174.956 668.952 174.956C671.785 174.956 674.578 174.291 677.109 173.016L715.524 150.816C716.438 150.401 717.229 149.757 717.821 148.947C718.413 148.136 718.786 147.186 718.903 146.189V145.956Z" fill="url(#paint13_linear_1_31)"/>
<path opacity="0.3" d="M706.939 143.293L679.4 159.409L668.951 163.18V174.961C671.791 175.019 674.599 174.35 677.108 173.017L715.523 150.816C716.437 150.402 717.228 149.758 717.82 148.947C718.412 148.137 718.785 147.187 718.903 146.19V145.956V137.247L716.708 136.022H716.475C715.698 140.066 710.94 142.729 706.939 143.293Z" fill="#0F054C"/>
<path d="M629.934 143.428L666.349 122.472C667.16 122.065 668.054 121.853 668.961 121.853C669.868 121.853 670.763 122.065 671.573 122.472L707.328 143.137L706.94 143.37C710.979 142.806 715.815 140.084 716.495 135.983L676.351 113.627L664.698 110.536L655.182 116.134L623.137 135.263C624.885 138.393 626.652 141.912 629.934 143.428Z" fill="url(#paint14_linear_1_31)"/>
<path opacity="0.3" d="M668.951 111.605L664.679 110.458L655.162 116.057L623.117 135.186C624.884 138.393 626.652 141.893 629.934 143.428L666.349 122.472C667.145 122.033 668.043 121.811 668.951 121.83V111.605Z" fill="#0F054C"/>
<path d="M660.794 164.152L622.476 141.912C617.97 139.327 617.97 135.089 622.476 132.484L660.891 110.283C663.422 109.008 666.215 108.344 669.048 108.344C671.881 108.344 674.675 109.008 677.205 110.283L715.621 132.484C720.127 135.089 720.127 139.327 715.621 141.912L677.205 164.113C674.668 165.419 671.858 166.104 669.005 166.11C666.152 166.117 663.338 165.446 660.794 164.152ZM671.573 113.608C670.762 113.201 669.868 112.989 668.961 112.989C668.054 112.989 667.16 113.201 666.349 113.608L627.933 135.808C627.613 135.912 627.335 136.115 627.137 136.387C626.939 136.66 626.832 136.988 626.832 137.324C626.832 137.661 626.939 137.989 627.137 138.262C627.335 138.534 627.613 138.737 627.933 138.841L666.349 161.041C667.16 161.448 668.054 161.66 668.961 161.66C669.868 161.66 670.762 161.448 671.573 161.041L709.989 138.841C710.3 138.728 710.568 138.521 710.758 138.25C710.948 137.979 711.05 137.656 711.05 137.324C711.05 136.993 710.948 136.67 710.758 136.399C710.568 136.128 710.3 135.921 709.989 135.808L671.573 113.608Z" fill="url(#paint15_linear_1_31)"/>
<path d="M709.988 135.73L671.573 113.53C670.762 113.123 669.867 112.911 668.96 112.911C668.054 112.911 667.159 113.123 666.348 113.53L627.933 135.73C626.962 136.294 626.651 137.071 626.962 137.791C627.181 137.377 627.519 137.038 627.933 136.819L666.348 114.696C667.159 114.289 668.054 114.077 668.96 114.077C669.867 114.077 670.762 114.289 671.573 114.696L709.988 136.897C710.397 137.116 710.729 137.455 710.94 137.869C711.25 137.071 710.94 136.294 709.988 135.73Z" fill="white"/>
<path d="M715.525 141.912L677.11 164.112C674.582 165.397 671.787 166.066 668.953 166.066C666.118 166.066 663.323 165.397 660.796 164.112L622.477 141.912C621.639 141.522 620.901 140.944 620.322 140.222C619.743 139.501 619.337 138.655 619.137 137.752C619.094 138.863 619.391 139.961 619.988 140.899C620.584 141.837 621.453 142.57 622.477 143.001L660.796 165.24C663.323 166.524 666.118 167.193 668.953 167.193C671.787 167.193 674.582 166.524 677.11 165.24L715.525 143.039C716.549 142.609 717.418 141.876 718.015 140.938C718.612 140 718.909 138.902 718.866 137.791C718.66 138.687 718.252 139.525 717.673 140.239C717.094 140.953 716.359 141.526 715.525 141.912Z" fill="white"/>
<path d="M661.882 163.53L623.466 141.329C619.582 139.074 619.582 135.497 623.466 133.164L661.882 110.964C664.07 109.844 666.493 109.261 668.951 109.261C671.409 109.261 673.832 109.844 676.02 110.964L714.436 133.164C718.32 135.419 718.32 138.996 714.436 141.329L676.02 163.53C673.832 164.649 671.409 165.233 668.951 165.233C666.493 165.233 664.07 164.649 661.882 163.53ZM672.641 112.986C671.499 112.4 670.234 112.095 668.951 112.095C667.668 112.095 666.403 112.4 665.261 112.986L626.846 135.108C626.398 135.258 626.008 135.546 625.732 135.929C625.456 136.313 625.308 136.774 625.308 137.247C625.308 137.72 625.456 138.18 625.732 138.564C626.008 138.948 626.398 139.235 626.846 139.385L665.203 161.586C666.348 162.16 667.612 162.46 668.893 162.46C670.174 162.46 671.438 162.16 672.583 161.586L711.018 139.385C711.466 139.235 711.855 138.948 712.131 138.564C712.407 138.18 712.555 137.72 712.555 137.247C712.555 136.774 712.407 136.313 712.131 135.929C711.855 135.546 711.466 135.258 711.018 135.108L672.641 112.986Z" fill="url(#paint16_linear_1_31)"/>
<path opacity="0.4" d="M671.574 113.53C670.764 113.123 669.869 112.911 668.962 112.911C668.055 112.911 667.161 113.123 666.35 113.53L627.935 135.73C627.614 135.834 627.336 136.037 627.138 136.309C626.94 136.582 626.833 136.91 626.833 137.246C626.833 137.583 626.94 137.911 627.138 138.184C627.336 138.456 627.614 138.659 627.935 138.763L666.35 160.963C667.161 161.37 668.055 161.582 668.962 161.582C669.869 161.582 670.764 161.37 671.574 160.963L709.99 138.763C710.301 138.65 710.569 138.443 710.759 138.172C710.949 137.901 711.051 137.578 711.051 137.246C711.051 136.915 710.949 136.592 710.759 136.321C710.569 136.05 710.301 135.843 709.99 135.73L671.574 113.53Z" fill="#42E8E0"/>
<path d="M642.594 181.78L553.574 231.333L553.564 263.421L553.402 263.701L498.701 294.629L498.162 293.944L552.722 262.935L552.733 230.847L553.337 230.449L642.054 181.095L642.594 181.78Z" fill="url(#paint17_linear_1_31)"/>
<path opacity="0.5" d="M587.023 322.296L602.086 331.015V365.83L587.023 357.126V322.296Z" fill="#758EF5"/>
<path opacity="0.2" d="M571.961 331.015L587.024 339.719V357.126L571.961 348.423V331.015Z" fill="#758EF5"/>
<path opacity="0.5" d="M556.897 270.059L571.96 278.778V348.423L556.897 339.719V270.059Z" fill="#758EF5"/>
<path opacity="0.2" d="M541.819 243.948L556.897 252.652V339.719L541.819 331.015V243.948Z" fill="#758EF5"/>
<path opacity="0.5" d="M526.757 252.652L541.819 261.355V331.015L526.757 322.296V252.652Z" fill="#758EF5"/>
<path opacity="0.2" d="M511.693 191.711L526.756 200.415V322.296L511.693 313.592V191.711Z" fill="#758EF5"/>
<path opacity="0.5" d="M496.632 200.415L511.694 209.119V313.593L496.632 304.889V200.415Z" fill="#758EF5"/>
<path opacity="0.2" d="M481.569 209.118L496.632 217.822V304.888L481.569 296.185V209.118Z" fill="#758EF5"/>
<path opacity="0.5" d="M466.492 165.585L481.57 174.304V296.186L466.492 287.482V165.585Z" fill="#758EF5"/>
<path opacity="0.2" d="M451.429 122.067L466.491 130.77V287.482L451.429 278.762V122.067Z" fill="#758EF5"/>
<path opacity="0.5" d="M436.366 130.771L451.429 139.474V278.763L436.366 270.059V130.771Z" fill="#758EF5"/>
<path opacity="0.2" d="M421.304 87.2368L436.366 95.9404V270.059L421.304 261.355V87.2368Z" fill="#758EF5"/>
<path opacity="0.5" d="M406.225 78.5334L421.303 87.237V261.355L406.225 252.652V78.5334Z" fill="#758EF5"/>
<path opacity="0.2" d="M391.163 35L406.226 43.7036V252.652L391.163 243.948V35Z" fill="#758EF5"/>
<path opacity="0.4" d="M405.96 495C482.176 495 543.962 459.296 543.962 415.254C543.962 371.211 482.176 335.507 405.96 335.507C329.744 335.507 267.959 371.211 267.959 415.254C267.959 459.296 329.744 495 405.96 495Z" fill="#0F054C"/>
<path d="M405.961 463.294C492.708 463.294 563.031 422.657 563.031 372.528C563.031 322.399 492.708 281.762 405.961 281.762C319.213 281.762 248.891 322.399 248.891 372.528C248.891 422.657 319.213 463.294 405.961 463.294Z" fill="url(#paint18_linear_1_31)"/>
<path opacity="0.48" d="M563.047 342.641H559.165C552.86 326.477 538.823 311.106 517.036 298.533C455.699 263.081 356.239 263.081 294.979 298.533C274.404 310.422 260.817 324.783 253.969 339.968H249.046V360.095C247.82 384.201 263.131 408.54 294.979 426.926C356.317 462.362 455.776 462.362 517.114 426.926C547.782 409.192 563.125 385.972 563.125 362.737L563.047 342.641Z" fill="url(#paint19_linear_1_31)"/>
<path opacity="0.48" d="M559.165 334.838C558.948 334.279 558.715 333.719 558.466 333.16V319.933H550.236V318.985C548.086 316.098 545.752 313.351 543.249 310.764V319.933H538.59V306.21C536.406 304.22 534.066 302.272 531.571 300.366V319.965H526.913V296.884C524.661 295.33 522.254 293.776 519.863 292.315V319.887H515.204V289.58C512.906 288.285 510.551 287.041 508.139 285.85V319.887H503.48V283.689C501.151 282.653 498.791 281.617 496.399 280.581V319.887H491.741V288.103H484.644V319.933H479.986V296.884H472.858V319.98H468.2V305.619H461.057V319.98H456.491V314.369H449.395V319.98H362.653V314.369H355.479V319.98H350.913V305.619H343.801V319.98H339.143V296.884H332.015V319.98H327.357V288.103H320.26V319.933H315.602V280.596C313.21 281.57 310.85 282.606 308.521 283.705V319.98H303.862V285.865C301.455 287.062 299.095 288.29 296.797 289.58V319.933H292.138V292.315C289.685 293.786 287.335 295.304 285.088 296.869V319.933H280.43V300.288C277.93 302.184 275.6 304.143 273.411 306.132V319.933H268.752V310.608C266.258 313.199 263.925 315.939 261.764 318.814V319.856H253.534V332.056H250.041V365.798C251.403 372.098 253.756 378.142 257.013 383.703V362.674H261.764V390.914C263.916 393.791 266.25 396.527 268.752 399.105V362.674H273.411V403.674C275.6 405.648 277.945 407.607 280.43 409.503V362.674H285.088V412.922C287.345 414.476 289.695 415.999 292.138 417.491V362.674H296.797V420.18C299.095 421.455 301.45 422.693 303.862 423.895V362.674H308.521V426.133C310.85 427.169 313.21 428.205 315.602 429.241V362.721H320.26V431.106C322.589 431.992 324.919 432.831 327.357 433.64V362.674H332.015V435.007C334.376 435.738 336.674 436.422 339.143 437.074V362.674H343.801V438.318C346.162 438.893 348.537 439.452 350.944 439.965V362.721H355.51V440.913C357.886 441.38 360.277 441.799 362.684 442.203V362.674H367.234V442.856C369.61 443.214 372.016 443.524 374.423 443.82V362.674H378.942V444.317C381.334 444.55 383.74 444.752 386.163 444.939V362.674H390.651V445.234C393.073 445.358 395.48 445.467 397.902 445.545V362.674H402.375V445.638C404.818 445.638 407.256 445.638 409.688 445.638V362.674H414.161V445.545C416.583 445.545 418.99 445.358 421.412 445.234V362.674H425.9V444.939C428.323 444.752 430.729 444.55 433.121 444.301V362.674H437.64V443.804C440.047 443.524 442.453 443.198 444.829 442.856V362.674H449.395V442.141C451.802 441.753 454.193 441.317 456.569 440.851V362.674H461.134V439.872C463.541 439.344 465.917 438.8 468.277 438.209V362.674H472.936V437.059C475.327 436.406 477.703 435.707 480.063 434.992V362.674H484.722V433.5C487.113 432.707 489.489 431.945 491.818 430.982V362.674H496.477V429.163C498.868 428.184 501.229 427.174 503.558 426.055V362.674H508.216V423.895C510.629 422.693 512.984 421.455 515.282 420.18V362.674H519.94V417.46C522.394 415.968 524.744 414.44 526.99 412.875V362.674H531.649V409.456C534.133 407.539 536.473 405.591 538.668 403.612V362.674H543.326V399.058C545.833 396.474 548.167 393.728 550.314 390.837V362.674H554.988V383.641C558.271 378.031 560.625 371.927 561.96 365.565V334.854L559.165 334.838Z" fill="url(#paint20_linear_1_31)"/>
<path d="M405.961 425.636C492.708 425.636 563.031 384.998 563.031 334.87C563.031 284.741 492.708 244.104 405.961 244.104C319.213 244.104 248.891 284.741 248.891 334.87C248.891 384.998 319.213 425.636 405.961 425.636Z" fill="url(#paint21_linear_1_31)"/>
<path opacity="0.3" d="M406.023 244.041C370.432 244.041 334.841 250.989 305.865 264.868L259 366.824C266.64 378.558 278.581 389.547 294.902 398.981C305.434 404.983 316.554 409.889 328.086 413.621L406.023 244.041Z" fill="#91A2FA"/>
<path opacity="0.3" d="M450.03 247.74L369.406 423.149C388.889 425.797 408.602 426.318 428.197 424.703L502.407 263.236C485.679 255.858 468.078 250.65 450.03 247.74Z" fill="#91A2FA"/>
<g opacity="0.05">
<path opacity="0.05" d="M405.961 415.254C482.786 415.254 545.065 379.265 545.065 334.87C545.065 290.475 482.786 254.486 405.961 254.486C329.136 254.486 266.857 290.475 266.857 334.87C266.857 379.265 329.136 415.254 405.961 415.254Z" fill="url(#paint22_linear_1_31)"/>
<g opacity="0.05">
<path opacity="0.05" d="M157.491 334.528L156 333.658L398.337 193.623L399.828 194.493L157.491 334.528Z" fill="#91A2FA"/>
<path opacity="0.05" d="M161.761 336.983L160.27 336.128L402.607 196.094L404.098 196.949L161.761 336.983Z" fill="#91A2FA"/>
<path opacity="0.05" d="M166.032 339.455L164.541 338.6L406.878 198.566L408.369 199.42L166.032 339.455Z" fill="#91A2FA"/>
<path opacity="0.05" d="M170.302 341.926L168.811 341.071L411.148 201.037L412.639 201.891L170.302 341.926Z" fill="#91A2FA"/>
<path opacity="0.05" d="M174.572 344.397L173.082 343.527L415.418 203.492L416.909 204.363L174.572 344.397Z" fill="#91A2FA"/>
<path opacity="0.05" d="M178.842 346.853L177.352 345.998L419.688 205.963L421.179 206.818L178.842 346.853Z" fill="#91A2FA"/>
<path opacity="0.05" d="M183.113 349.324L181.622 348.469L423.959 208.434L425.434 209.289L183.113 349.324Z" fill="#91A2FA"/>
<path opacity="0.05" d="M187.383 351.795L185.893 350.94L428.229 210.906L429.705 211.761L187.383 351.795Z" fill="#91A2FA"/>
<path opacity="0.05" d="M191.653 354.267L190.163 353.396L432.499 213.362L433.975 214.217L191.653 354.267Z" fill="#91A2FA"/>
<path opacity="0.05" d="M195.924 356.722L194.433 355.867L436.77 215.833L438.245 216.688L195.924 356.722Z" fill="#91A2FA"/>
<path opacity="0.05" d="M200.178 359.193L198.703 358.338L441.04 218.304L442.515 219.159L200.178 359.193Z" fill="#91A2FA"/>
<path opacity="0.05" d="M204.449 361.664L202.974 360.81L445.311 220.775L446.786 221.63L204.449 361.664Z" fill="#91A2FA"/>
<path opacity="0.05" d="M208.719 364.12L207.244 363.265L449.581 223.23L451.056 224.085L208.719 364.12Z" fill="#91A2FA"/>
<path opacity="0.05" d="M212.99 366.591L211.515 365.736L453.852 225.702L455.327 226.557L212.99 366.591Z" fill="#91A2FA"/>
<path opacity="0.05" d="M217.26 369.062L215.785 368.207L458.122 228.173L459.597 229.028L217.26 369.062Z" fill="#91A2FA"/>
<path opacity="0.05" d="M221.531 371.533L220.04 370.679L462.377 230.629L463.868 231.499L221.531 371.533Z" fill="#91A2FA"/>
<path opacity="0.05" d="M225.801 374.005L224.31 373.135L466.647 233.1L468.138 233.955L225.801 374.005Z" fill="#91A2FA"/>
<path opacity="0.05" d="M230.071 376.461L228.581 375.606L470.917 235.572L472.408 236.426L230.071 376.461Z" fill="#91A2FA"/>
<path opacity="0.05" d="M234.341 378.932L232.851 378.077L475.187 238.042L476.678 238.897L234.341 378.932Z" fill="#91A2FA"/>
<path opacity="0.05" d="M238.612 381.403L237.121 380.533L479.458 240.498L480.949 241.368L238.612 381.403Z" fill="#91A2FA"/>
<path opacity="0.05" d="M242.882 383.858L241.392 383.003L483.728 242.969L485.219 243.824L242.882 383.858Z" fill="#91A2FA"/>
<path opacity="0.05" d="M247.152 386.33L245.662 385.475L487.998 245.44L489.489 246.295L247.152 386.33Z" fill="#91A2FA"/>
<path opacity="0.05" d="M251.423 388.801L249.932 387.946L492.269 247.912L493.76 248.767L251.423 388.801Z" fill="#91A2FA"/>
<path opacity="0.05" d="M255.693 391.272L254.202 390.417L496.539 250.367L498.03 251.238L255.693 391.272Z" fill="#91A2FA"/>
<path opacity="0.05" d="M259.963 393.727L258.473 392.873L500.81 252.838L502.3 253.693L259.963 393.727Z" fill="#91A2FA"/>
<path opacity="0.05" d="M264.234 396.198L262.743 395.344L505.08 255.309L506.555 256.164L264.234 396.198Z" fill="#91A2FA"/>
<path opacity="0.05" d="M268.504 398.67L267.014 397.815L509.351 257.781L510.826 258.635L268.504 398.67Z" fill="#91A2FA"/>
<path opacity="0.05" d="M272.759 401.141L271.284 400.271L513.621 260.236L515.096 261.107L272.759 401.141Z" fill="#91A2FA"/>
<path opacity="0.05" d="M277.029 403.597L275.554 402.742L517.891 262.708L519.366 263.562L277.029 403.597Z" fill="#91A2FA"/>
<path opacity="0.05" d="M281.299 406.068L279.824 405.213L522.161 265.178L523.636 266.033L281.299 406.068Z" fill="#91A2FA"/>
<path opacity="0.05" d="M285.57 408.539L284.095 407.684L526.432 267.649L527.907 268.504L285.57 408.539Z" fill="#91A2FA"/>
<path opacity="0.05" d="M289.84 411.01L288.365 410.14L530.702 270.106L532.177 270.961L289.84 411.01Z" fill="#91A2FA"/>
<path opacity="0.05" d="M294.11 413.466L292.635 412.611L534.957 272.577L536.447 273.431L294.11 413.466Z" fill="#91A2FA"/>
<path opacity="0.05" d="M298.38 415.937L296.905 415.083L539.242 275.048L540.717 275.903L298.38 415.937Z" fill="#91A2FA"/>
<path opacity="0.05" d="M302.651 418.409L301.176 417.554L543.497 277.504L544.988 278.374L302.651 418.409Z" fill="#91A2FA"/>
<path opacity="0.05" d="M306.921 420.88L305.446 420.009L547.768 279.975L549.258 280.845L306.921 420.88Z" fill="#91A2FA"/>
<path opacity="0.05" d="M311.192 423.335L309.701 422.48L552.038 282.446L553.529 283.301L311.192 423.335Z" fill="#91A2FA"/>
<path opacity="0.05" d="M315.462 425.807L313.972 424.952L556.309 284.918L557.799 285.773L315.462 425.807Z" fill="#91A2FA"/>
<path opacity="0.05" d="M319.733 428.278L318.242 427.423L560.579 287.373L562.07 288.243L319.733 428.278Z" fill="#91A2FA"/>
<path opacity="0.05" d="M324.002 430.749L322.512 429.879L564.849 289.844L566.339 290.715L324.002 430.749Z" fill="#91A2FA"/>
<path opacity="0.05" d="M328.273 433.204L326.782 432.35L569.119 292.315L570.61 293.17L328.273 433.204Z" fill="#91A2FA"/>
<path opacity="0.05" d="M332.544 435.675L331.054 434.821L573.391 294.786L574.881 295.641L332.544 435.675Z" fill="#91A2FA"/>
<path opacity="0.05" d="M336.814 438.147L335.323 437.293L577.66 297.258L579.151 298.113L336.814 438.147Z" fill="#91A2FA"/>
<path opacity="0.05" d="M341.084 440.619L339.594 439.748L581.931 299.714L583.421 300.569L341.084 440.619Z" fill="#91A2FA"/>
<path opacity="0.05" d="M345.355 443.074L343.864 442.219L586.201 302.185L587.692 303.04L345.355 443.074Z" fill="#91A2FA"/>
<path opacity="0.05" d="M349.626 445.545L348.135 444.69L590.472 304.656L591.962 305.511L349.626 445.545Z" fill="#91A2FA"/>
<path opacity="0.05" d="M353.895 448.016L352.404 447.161L594.741 307.111L596.232 307.982L353.895 448.016Z" fill="#91A2FA"/>
<path opacity="0.05" d="M358.166 450.472L356.675 449.617L599.012 309.582L600.487 310.437L358.166 450.472Z" fill="#91A2FA"/>
<path opacity="0.05" d="M362.436 452.943L360.945 452.089L603.282 312.054L604.757 312.909L362.436 452.943Z" fill="#91A2FA"/>
<path opacity="0.05" d="M366.69 455.414L365.215 454.56L607.552 314.525L609.027 315.38L366.69 455.414Z" fill="#91A2FA"/>
<path opacity="0.05" d="M370.961 457.886L369.485 457.031L611.822 316.981L613.297 317.851L370.961 457.886Z" fill="#91A2FA"/>
<path opacity="0.05" d="M375.232 460.341L373.757 459.486L616.094 319.452L617.569 320.307L375.232 460.341Z" fill="#91A2FA"/>
<path opacity="0.05" d="M379.503 462.812L378.027 461.957L620.364 321.923L621.839 322.778L379.503 462.812Z" fill="#91A2FA"/>
<path opacity="0.05" d="M383.772 465.284L382.297 464.429L624.634 324.395L626.109 325.25L383.772 465.284Z" fill="#91A2FA"/>
<path opacity="0.05" d="M388.042 467.755L386.551 466.885L628.888 326.851L630.378 327.721L388.042 467.755Z" fill="#91A2FA"/>
<path opacity="0.05" d="M392.312 470.211L390.821 469.356L633.158 329.321L634.649 330.176L392.312 470.211Z" fill="#91A2FA"/>
<path opacity="0.05" d="M396.583 472.681L395.092 471.827L637.429 331.792L638.919 332.647L396.583 472.681Z" fill="#91A2FA"/>
<path opacity="0.05" d="M400.852 475.153L399.361 474.298L641.698 334.264L643.189 335.118L400.852 475.153Z" fill="#91A2FA"/>
<path opacity="0.05" d="M405.123 477.623L403.632 476.753L645.969 336.719L647.459 337.589L405.123 477.623Z" fill="#91A2FA"/>
<path opacity="0.05" d="M409.393 480.08L407.902 479.225L650.239 339.191L651.73 340.046L409.393 480.08Z" fill="#91A2FA"/>
<path opacity="0.05" d="M413.663 482.551L412.172 481.696L654.509 341.662L655.999 342.517L413.663 482.551Z" fill="#91A2FA"/>
</g>
</g>
<path d="M307.605 283.441C361.954 252.062 450 252.062 504.334 283.441C530.298 298.455 543.839 317.913 544.988 337.574C546.23 316.111 532.689 294.414 504.334 278.032C449.985 246.637 361.923 246.637 307.605 278.032C279.25 294.414 265.678 316.111 266.951 337.574C268.1 317.913 281.688 298.439 307.605 283.441Z" fill="url(#paint23_linear_1_31)"/>
<path d="M448.96 317.851C440.677 317.116 432.343 318.512 424.751 321.907C434.068 314.136 431.92 306.194 418.307 298.081L417.297 297.491C412.882 294.858 408.142 292.815 403.198 291.414C398.518 290.049 393.676 289.322 388.803 289.253C384.15 289.283 379.518 289.889 375.013 291.056C372.498 291.699 370.096 292.414 367.808 293.201L359.05 288.134L346.162 295.579L353.367 299.76C352.093 300.444 350.805 301.159 349.485 301.92L344.826 304.656L337.683 300.521L324.794 307.966L331.938 312.1L323.04 317.245L319.561 319.265L318.614 319.794L303.831 328.342L316.72 335.802L331.503 327.254L424.394 380.967L409.595 389.516L422.484 396.96L437.282 388.412L441.708 385.863L450.606 380.719L457.873 384.915L470.762 377.47L466.103 374.813L463.448 373.258L472.004 368.316L479.271 372.512L492.16 365.068L487.501 362.41L483.806 360.265C488.883 355.836 491.57 351.36 491.912 346.852C492.284 340.117 486.694 333.383 475.141 326.648L474.364 326.181C466.589 321.617 457.926 318.776 448.96 317.851ZM362.435 314.836L366.581 312.427C376.851 306.5 386.686 306.241 396.086 311.65C401.583 314.758 404.564 317.726 405.076 320.353C405.589 322.98 403.011 325.933 397.312 329.197L392.297 332.087L362.435 314.836ZM445.233 362.674L409.564 342.112L414.72 339.128C419.621 336.02 425.316 334.401 431.118 334.465C436.232 334.714 442.133 336.786 448.82 340.682C454.783 344.133 458.003 347.319 458.479 350.241C458.96 353.162 456.351 356.271 450.715 359.566L445.233 362.674Z" fill="url(#paint24_linear_1_31)"/>
<path d="M324.717 297.506V305.775L331.86 301.641L324.717 297.506Z" fill="url(#paint25_linear_1_31)"/>
<path d="M346.161 285.119V293.388L353.366 289.3L346.161 285.119Z" fill="url(#paint26_linear_1_31)"/>
<path d="M430.45 301.656V311.478L423.99 307.515L430.45 301.656Z" fill="url(#paint27_linear_1_31)"/>
<path d="M491.99 334.87V346.868L482.3 340.869L491.99 334.87Z" fill="url(#paint28_linear_1_31)"/>
<path d="M448.96 307.391C440.677 306.657 432.343 308.053 424.751 311.448C434.068 303.677 431.92 295.73 418.307 287.606L417.297 287.031C412.882 284.399 408.142 282.356 403.198 280.954C398.52 279.582 393.677 278.855 388.803 278.794C384.15 278.824 379.518 279.429 375.013 280.597C372.498 281.229 370.096 281.944 367.808 282.742L359.05 277.675L346.162 285.119L353.367 289.3C352.093 289.984 350.805 290.699 349.485 291.461L344.826 294.196L337.683 290.062L324.794 297.507L331.938 301.641L323.04 306.785L319.561 308.79L318.614 309.334L303.831 317.882L316.72 325.342L331.503 316.794L424.472 370.508L409.673 379.056L422.562 386.501L437.36 377.953L441.786 375.404L450.684 370.259L457.951 374.456L470.839 367.011L466.181 364.353L463.526 362.799L472.082 357.857L479.349 362.053L492.238 354.608L487.579 351.951L483.883 349.806C488.961 345.376 491.648 340.9 491.989 336.393C492.362 329.658 486.772 322.923 475.218 316.188L474.442 315.737C466.648 311.15 457.956 308.303 448.96 307.391ZM362.435 304.376L366.581 301.967C376.851 296.04 386.686 295.781 396.086 301.19C401.583 304.298 404.564 307.267 405.077 309.894C405.589 312.52 403.011 315.473 397.312 318.737L392.297 321.628L362.435 304.376ZM445.233 352.215L409.626 331.653L414.782 328.668C419.683 325.561 425.378 323.941 431.18 324.006C436.294 324.255 442.195 326.327 448.882 330.223C454.845 333.673 458.065 336.859 458.541 339.781C459.022 342.703 456.414 345.811 450.777 349.106L445.233 352.215Z" fill="url(#paint29_linear_1_31)"/>
<path d="M492.206 354.624V365.083L479.317 372.528V362.068L492.206 354.624Z" fill="url(#paint30_linear_1_31)"/>
<path d="M470.762 367.011V377.471L457.873 384.915V374.455L470.762 367.011Z" fill="url(#paint31_linear_1_31)"/>
<path d="M422.498 386.501V396.961L409.594 389.516V379.056L422.498 386.501Z" fill="url(#paint32_linear_1_31)"/>
<path d="M303.754 317.882V328.357L316.643 335.802V325.342L303.754 317.882Z" fill="url(#paint33_linear_1_31)"/>
<path d="M331.425 327.254V316.794L316.642 325.342V335.802L331.425 327.254Z" fill="url(#paint34_linear_1_31)"/>
<path d="M331.424 316.794V327.254L415.34 375.745L424.393 370.508L331.424 316.794Z" fill="url(#paint35_linear_1_31)"/>
<path d="M407.887 259.226C402.404 259.34 396.983 258.045 392.141 255.465C387.762 252.947 385.355 249.528 385.355 245.86C385.355 242.192 387.762 238.788 392.141 236.255C400.822 231.25 414.953 231.25 423.649 236.255C428.012 238.788 430.419 242.208 430.419 245.86C430.419 249.512 428.012 252.947 423.649 255.465C418.802 258.045 413.376 259.34 407.887 259.226ZM407.887 234.203C402.702 234.108 397.578 235.333 392.995 237.762C389.191 239.969 387.095 242.845 387.095 245.86C387.095 248.875 389.191 251.766 393.011 253.973C401.21 258.713 414.564 258.713 422.779 253.973C426.583 251.766 428.695 248.891 428.695 245.86C428.695 242.829 426.583 239.969 422.779 237.762C418.197 235.331 413.072 234.106 407.887 234.203Z" fill="#91A2FA"/>
<path d="M417.22 251.253C414.334 252.722 411.142 253.487 407.903 253.487C404.665 253.487 401.473 252.722 398.586 251.253C393.431 248.284 393.431 243.482 398.586 240.482C401.473 239.014 404.665 238.248 407.903 238.248C411.142 238.248 414.334 239.014 417.22 240.482C422.36 243.451 422.36 248.284 417.22 251.253Z" fill="#97A6FC"/>
<path d="M462.282 219.764L453.043 214.433L468.773 205.341L478.028 210.672L462.282 219.764Z" fill="#91A2FA"/>
<path opacity="0.8" d="M445.667 211.341L434.021 207.906L444.13 196.452L455.776 199.886L445.667 211.341Z" fill="#91A2FA"/>
<path opacity="0.6" d="M425.357 206.274L412.453 205.093L415.931 192.395L428.836 193.576L425.357 206.274Z" fill="#91A2FA"/>
<path opacity="0.4" d="M403.337 205.093L390.417 206.274L386.938 193.576L399.843 192.395L403.337 205.093Z" fill="#91A2FA"/>
<path opacity="0.2" d="M381.753 207.906L370.106 211.341L360.013 199.871L371.643 196.452L381.753 207.906Z" fill="#91A2FA"/>
<path opacity="0.1" d="M362.73 214.433L353.49 219.764L337.76 210.672L346.999 205.341L362.73 214.433Z" fill="#91A2FA"/>
<path opacity="0.2" d="M431.444 234.141L428.198 232.26L451.677 218.692L454.923 220.572L431.444 234.141Z" fill="#91A2FA"/>
<path opacity="0.4" d="M424.006 230.504L419.922 229.292L435 212.195L439.084 213.408L424.006 230.504Z" fill="#91A2FA"/>
<path opacity="0.6" d="M415.015 228.375L410.48 227.955L415.667 209.01L420.201 209.429L415.015 228.375Z" fill="#91A2FA"/>
<path opacity="0.8" d="M405.31 227.955L400.775 228.375L395.573 209.429L400.108 209.01L405.31 227.955Z" fill="#91A2FA"/>
<path d="M395.853 229.292L391.769 230.504L376.69 213.408L380.79 212.195L395.853 229.292Z" fill="#91A2FA"/>
<path d="M387.591 232.26L384.345 234.141L360.866 220.572L364.112 218.692L387.591 232.26Z" fill="#91A2FA"/>
<path d="M381.302 236.55L379.221 238.912L349.64 230.193L351.72 227.831L381.302 236.55Z" fill="#91A2FA"/>
<path d="M377.621 241.756L376.906 244.367L344.11 241.368L344.825 238.741L377.621 241.756Z" fill="#91A2FA"/>
<path d="M376.906 247.352L377.621 249.978L344.825 252.978L344.11 250.351L376.906 247.352Z" fill="#91A2FA"/>
<path d="M379.221 252.823L381.302 255.185L351.72 263.889L349.64 261.526L379.221 252.823Z" fill="#91A2FA"/>
<path d="M384.345 257.594L387.591 259.475L364.112 273.043L360.866 271.162L384.345 257.594Z" fill="#91A2FA"/>
<path opacity="0.6" d="M500.11 201.813C534.63 225.872 536.556 260.267 505.934 285.507L518.356 296.962C560.609 266.531 559.677 222.717 515.608 192.83L500.11 201.813Z" fill="#97A6FC"/>
<path opacity="0.2" d="M426.568 314.168C390.061 317.478 351.395 311.059 323.273 294.771C317.132 291.279 311.403 287.109 306.192 282.338L285.12 286.534C291.899 293.206 299.527 298.954 307.807 303.63C343.382 324.177 393.213 331.482 438.898 325.56L426.568 314.168Z" fill="#91A2FA"/>
<path d="M267.852 257.47L288.924 253.274C285.197 233.193 296.688 212.351 323.273 196.964C367.311 171.522 437.112 170.061 484.132 192.566L499.583 183.645C444.006 156.229 360.401 157.689 307.853 188.059C275.103 206.974 261.78 232.867 267.852 257.47Z" fill="#97A6FC"/>
<path d="M394.983 291.585L386.737 286.829L492.61 225.64L500.856 230.396L394.983 291.585Z" fill="#97A6FC"/>
<path opacity="0.8" d="M406.691 298.361L398.445 293.59L444.472 266.997L452.717 271.768L406.691 298.361Z" fill="#97A6FC"/>
<path opacity="0.6" d="M419.223 305.604L410.978 300.832L484.241 258.511L492.486 263.267L419.223 305.604Z" fill="#97A6FC"/>
<path opacity="0.2" d="M431.568 312.722L423.307 307.966L480.343 275.017L488.588 279.773L431.568 312.722Z" fill="#97A6FC"/>
<defs>
<linearGradient id="paint0_linear_1_31" x1="120" y1="1256.62" x2="120" y2="1907.74" gradientUnits="userSpaceOnUse">
<stop stop-color="white" stop-opacity="0.04"/>
<stop offset="1" stop-color="white" stop-opacity="0.01"/>
</linearGradient>
<linearGradient id="paint1_linear_1_31" x1="629.95" y1="530.116" x2="709.266" y2="575.884" gradientUnits="userSpaceOnUse">
<stop stop-color="#BCBEFF"/>
<stop offset="0.23" stop-color="#AAADF8"/>
<stop offset="0.68" stop-color="#7C83E5"/>
<stop offset="1" stop-color="#5761D7"/>
</linearGradient>
<linearGradient id="paint2_linear_1_31" x1="620.002" y1="547.437" x2="719.935" y2="547.437" gradientUnits="userSpaceOnUse">
<stop stop-color="#E9E9FD"/>
<stop offset="0.36" stop-color="#D3D2F9"/>
<stop offset="0.71" stop-color="#C5C4F7"/>
<stop offset="1" stop-color="#C0BFF6"/>
</linearGradient>
<linearGradient id="paint3_linear_1_31" x1="52476" y1="9528.62" x2="54227.4" y2="12071" gradientUnits="userSpaceOnUse">
<stop stop-color="#BCBEFF"/>
<stop offset="0.23" stop-color="#AAADF8"/>
<stop offset="0.68" stop-color="#7C83E5"/>
<stop offset="1" stop-color="#5761D7"/>
</linearGradient>
<linearGradient id="paint4_linear_1_31" x1="51933" y1="14075.8" x2="57072.7" y2="14075.8" gradientUnits="userSpaceOnUse">
<stop stop-color="#E9E9FD"/>
<stop offset="0.36" stop-color="#D3D2F9"/>
<stop offset="0.71" stop-color="#C5C4F7"/>
<stop offset="1" stop-color="#C0BFF6"/>
</linearGradient>
<linearGradient id="paint5_linear_1_31" x1="480.959" y1="453.479" x2="651.052" y2="453.479" gradientUnits="userSpaceOnUse">
<stop stop-color="#5778FF"/>
<stop offset="0.1042" stop-color="#567FFF"/>
<stop offset="0.2607" stop-color="#5394FF"/>
<stop offset="0.4503" stop-color="#4DB6FF"/>
<stop offset="0.6638" stop-color="#46E4FF"/>
<stop offset="0.7742" stop-color="#42FFFF"/>
</linearGradient>
<linearGradient id="paint6_linear_1_31" x1="43165.8" y1="11841.4" x2="44917.1" y2="14383.9" gradientUnits="userSpaceOnUse">
<stop stop-color="#BCBEFF"/>
<stop offset="0.23" stop-color="#AAADF8"/>
<stop offset="0.68" stop-color="#7C83E5"/>
<stop offset="1" stop-color="#5761D7"/>
</linearGradient>
<linearGradient id="paint7_linear_1_31" x1="42647.6" y1="17439.7" x2="47790.8" y2="17439.7" gradientUnits="userSpaceOnUse">
<stop stop-color="#E9E9FD"/>
<stop offset="0.36" stop-color="#D3D2F9"/>
<stop offset="0.71" stop-color="#C5C4F7"/>
<stop offset="1" stop-color="#C0BFF6"/>
</linearGradient>
<linearGradient id="paint8_linear_1_31" x1="43165.8" y1="10492.5" x2="44916.6" y2="13034.3" gradientUnits="userSpaceOnUse">
<stop stop-color="#BCBEFF"/>
<stop offset="0.23" stop-color="#AAADF8"/>
<stop offset="0.68" stop-color="#7C83E5"/>
<stop offset="1" stop-color="#5761D7"/>
</linearGradient>
<linearGradient id="paint9_linear_1_31" x1="42647.6" y1="15503.9" x2="47790.8" y2="15503.9" gradientUnits="userSpaceOnUse">
<stop stop-color="#E9E9FD"/>
<stop offset="0.36" stop-color="#D3D2F9"/>
<stop offset="0.71" stop-color="#C5C4F7"/>
<stop offset="1" stop-color="#C0BFF6"/>
</linearGradient>
<linearGradient id="paint10_linear_1_31" x1="340.231" y1="469.7" x2="170.141" y2="470.704" gradientUnits="userSpaceOnUse">
<stop stop-color="#5778FF"/>
<stop offset="0.1042" stop-color="#567FFF"/>
<stop offset="0.2607" stop-color="#5394FF"/>
<stop offset="0.4503" stop-color="#4DB6FF"/>
<stop offset="0.6638" stop-color="#46E4FF"/>
<stop offset="0.7742" stop-color="#42FFFF"/>
</linearGradient>
<linearGradient id="paint11_linear_1_31" x1="26726.7" y1="5161.86" x2="28478.1" y2="7702.14" gradientUnits="userSpaceOnUse">
<stop stop-color="#BCBEFF"/>
<stop offset="0.23" stop-color="#AAADF8"/>
<stop offset="0.68" stop-color="#7C83E5"/>
<stop offset="1" stop-color="#5761D7"/>
</linearGradient>
<linearGradient id="paint12_linear_1_31" x1="26190.4" y1="7900.77" x2="31324.5" y2="7900.77" gradientUnits="userSpaceOnUse">
<stop stop-color="#E9E9FD"/>
<stop offset="0.36" stop-color="#D3D2F9"/>
<stop offset="0.71" stop-color="#C5C4F7"/>
<stop offset="1" stop-color="#C0BFF6"/>
</linearGradient>
<linearGradient id="paint13_linear_1_31" x1="26726.7" y1="3948.11" x2="28483.1" y2="6490.26" gradientUnits="userSpaceOnUse">
<stop stop-color="#BCBEFF"/>
<stop offset="0.23" stop-color="#AAADF8"/>
<stop offset="0.68" stop-color="#7C83E5"/>
<stop offset="1" stop-color="#5761D7"/>
</linearGradient>
<linearGradient id="paint14_linear_1_31" x1="633.702" y1="116.854" x2="704.41" y2="157.638" gradientUnits="userSpaceOnUse">
<stop offset="0.24" stop-color="#5761D7"/>
<stop offset="0.39" stop-color="#7A82E5"/>
<stop offset="0.55" stop-color="#979CF0"/>
<stop offset="0.7" stop-color="#ACAFF8"/>
<stop offset="0.85" stop-color="#B8BAFD"/>
<stop offset="1" stop-color="#BCBEFF"/>
</linearGradient>
<linearGradient id="paint15_linear_1_31" x1="26215.3" y1="6150.71" x2="31354.3" y2="6150.71" gradientUnits="userSpaceOnUse">
<stop stop-color="#E9E9FD"/>
<stop offset="0.36" stop-color="#D3D2F9"/>
<stop offset="0.71" stop-color="#C5C4F7"/>
<stop offset="1" stop-color="#C0BFF6"/>
</linearGradient>
<linearGradient id="paint16_linear_1_31" x1="25497.1" y1="5963.93" x2="30323.3" y2="5963.93" gradientUnits="userSpaceOnUse">
<stop stop-color="#E9E9FD"/>
<stop offset="0.36" stop-color="#D3D2F9"/>
<stop offset="0.71" stop-color="#C5C4F7"/>
<stop offset="1" stop-color="#C0BFF6"/>
</linearGradient>
<linearGradient id="paint17_linear_1_31" x1="527.839" y1="311.499" x2="612.886" y2="164.194" gradientUnits="userSpaceOnUse">
<stop stop-color="#5778FF"/>
<stop offset="0.1042" stop-color="#567FFF"/>
<stop offset="0.2607" stop-color="#5394FF"/>
<stop offset="0.4503" stop-color="#4DB6FF"/>
<stop offset="0.6638" stop-color="#46E4FF"/>
<stop offset="0.7742" stop-color="#42FFFF"/>
</linearGradient>
<linearGradient id="paint18_linear_1_31" x1="100029" y1="-16197.8" x2="118991" y2="14589.1" gradientUnits="userSpaceOnUse">
<stop stop-color="#35068C"/>
<stop offset="0.02" stop-color="#40DDDA"/>
<stop offset="0.09" stop-color="#3AAEC0"/>
<stop offset="0.17" stop-color="#3484A9"/>
<stop offset="0.26" stop-color="#2F6195"/>
<stop offset="0.35" stop-color="#2B4486"/>
<stop offset="0.44" stop-color="#282E79"/>
<stop offset="0.54" stop-color="#261E71"/>
<stop offset="0.66" stop-color="#24156C"/>
<stop offset="0.82" stop-color="#24126A"/>
</linearGradient>
<linearGradient id="paint19_linear_1_31" x1="225.179" y1="362.675" x2="536.214" y2="362.675" gradientUnits="userSpaceOnUse">
<stop stop-color="#3671E9"/>
<stop offset="0.15" stop-color="#91A2FA"/>
<stop offset="0.33" stop-color="#8B97F1"/>
<stop offset="0.52" stop-color="#7366C8"/>
<stop offset="0.72" stop-color="#654CB3"/>
<stop offset="0.93" stop-color="#4127A7"/>
<stop offset="1" stop-color="#260672"/>
</linearGradient>
<linearGradient id="paint20_linear_1_31" x1="22277.8" y1="45113.4" x2="84933.2" y2="45113.4" gradientUnits="userSpaceOnUse">
<stop stop-color="#42E8E0"/>
<stop offset="0.15" stop-color="#43E3E0"/>
<stop offset="0.33" stop-color="#45D5DF"/>
<stop offset="0.52" stop-color="#49BDDD"/>
<stop offset="0.72" stop-color="#4E9CDB"/>
<stop offset="0.93" stop-color="#5472D8"/>
<stop offset="1" stop-color="#5761D7"/>
</linearGradient>
<linearGradient id="paint21_linear_1_31" x1="102764" y1="-22241.8" x2="121726" y2="8545.16" gradientUnits="userSpaceOnUse">
<stop stop-color="#654CB2"/>
<stop offset="0.02" stop-color="#40DDDA"/>
<stop offset="0.09" stop-color="#3AAEC0"/>
<stop offset="0.17" stop-color="#3484A9"/>
<stop offset="0.26" stop-color="#2F6195"/>
<stop offset="0.35" stop-color="#2B4486"/>
<stop offset="0.44" stop-color="#282E79"/>
<stop offset="0.54" stop-color="#261E71"/>
<stop offset="0.66" stop-color="#24156C"/>
<stop offset="0.82" stop-color="#24126A"/>
</linearGradient>
<linearGradient id="paint22_linear_1_31" x1="381.442" y1="212.227" x2="459.293" y2="600.925" gradientUnits="userSpaceOnUse">
<stop stop-color="#42E8E0"/>
<stop offset="0.02" stop-color="#40DDDA"/>
<stop offset="0.09" stop-color="#3AAEC0"/>
<stop offset="0.17" stop-color="#3484A9"/>
<stop offset="0.26" stop-color="#2F6195"/>
<stop offset="0.35" stop-color="#2B4486"/>
<stop offset="0.44" stop-color="#282E79"/>
<stop offset="0.54" stop-color="#261E71"/>
<stop offset="0.66" stop-color="#24156C"/>
<stop offset="0.82" stop-color="#24126A"/>
</linearGradient>
<linearGradient id="paint23_linear_1_31" x1="266.873" y1="296.03" x2="545.065" y2="296.03" gradientUnits="userSpaceOnUse">
<stop stop-color="#2B237C"/>
<stop offset="1" stop-color="#180D5B"/>
</linearGradient>
<linearGradient id="paint24_linear_1_31" x1="20117.9" y1="28406.6" x2="42973.5" y2="28406.6" gradientUnits="userSpaceOnUse">
<stop stop-color="#2B237C"/>
<stop offset="1" stop-color="#180D5B"/>
</linearGradient>
<linearGradient id="paint25_linear_1_31" x1="1186.96" y1="2185.27" x2="1191.07" y2="2244.98" gradientUnits="userSpaceOnUse">
<stop stop-color="#2B237D"/>
<stop offset="0.02" stop-color="#40DDDA"/>
<stop offset="0.09" stop-color="#3AAEC0"/>
<stop offset="0.17" stop-color="#3484A9"/>
<stop offset="0.26" stop-color="#2F6195"/>
<stop offset="0.35" stop-color="#2B4486"/>
<stop offset="0.44" stop-color="#282E79"/>
<stop offset="0.54" stop-color="#261E71"/>
<stop offset="0.66" stop-color="#24156C"/>
<stop offset="0.82" stop-color="#24126A"/>
</linearGradient>
<linearGradient id="paint26_linear_1_31" x1="1315.55" y1="2106.98" x2="1319.53" y2="2166.7" gradientUnits="userSpaceOnUse">
<stop stop-color="#2C247E"/>
<stop offset="0.02" stop-color="#40DDDA"/>
<stop offset="0.09" stop-color="#3AAEC0"/>
<stop offset="0.17" stop-color="#3484A9"/>
<stop offset="0.26" stop-color="#2F6195"/>
<stop offset="0.35" stop-color="#2B4486"/>
<stop offset="0.44" stop-color="#282E79"/>
<stop offset="0.54" stop-color="#261E71"/>
<stop offset="0.66" stop-color="#24156C"/>
<stop offset="0.82" stop-color="#24126A"/>
</linearGradient>
<linearGradient id="paint27_linear_1_31" x1="1616.15" y1="2571.07" x2="1623.74" y2="2655.26" gradientUnits="userSpaceOnUse">
<stop stop-color="#2B237C"/>
<stop offset="1" stop-color="#180D5B"/>
</linearGradient>
<linearGradient id="paint28_linear_1_31" x1="2619.47" y1="3407.33" x2="2703.26" y2="3421.55" gradientUnits="userSpaceOnUse">
<stop stop-color="#2B237C"/>
<stop offset="1" stop-color="#180D5B"/>
</linearGradient>
<linearGradient id="paint29_linear_1_31" x1="21098.3" y1="26289.2" x2="90862.6" y2="51600.8" gradientUnits="userSpaceOnUse">
<stop stop-color="#654DB3"/>
<stop offset="0.0899" stop-color="#40DDDA"/>
<stop offset="0.09" stop-color="#E9E9FE"/>
<stop offset="0.17" stop-color="#654DB3"/>
<stop offset="0.26" stop-color="#2F6195"/>
<stop offset="0.35" stop-color="#2B4486"/>
<stop offset="0.44" stop-color="#282E79"/>
<stop offset="0.54" stop-color="#261E71"/>
<stop offset="0.66" stop-color="#24156C"/>
<stop offset="0.82" stop-color="#24126A"/>
</linearGradient>
<linearGradient id="paint30_linear_1_31" x1="3293.8" y1="5207.83" x2="3432.46" y2="5228.76" gradientUnits="userSpaceOnUse">
<stop stop-color="#2B237C"/>
<stop offset="1" stop-color="#180D5B"/>
</linearGradient>
<linearGradient id="paint31_linear_1_31" x1="3094.49" y1="5362.92" x2="3233.15" y2="5383.85" gradientUnits="userSpaceOnUse">
<stop stop-color="#2B237C"/>
<stop offset="1" stop-color="#180D5B"/>
</linearGradient>
<linearGradient id="paint32_linear_1_31" x1="2636.2" y1="5510.32" x2="2807.03" y2="5536.14" gradientUnits="userSpaceOnUse">
<stop stop-color="#2B237C"/>
<stop offset="1" stop-color="#180D5B"/>
</linearGradient>
<linearGradient id="paint33_linear_1_31" x1="1706.94" y1="4620.31" x2="1731.03" y2="4912.35" gradientUnits="userSpaceOnUse">
<stop stop-color="#2C247D"/>
<stop offset="0.02" stop-color="#40DDDA"/>
<stop offset="0.09" stop-color="#3AAEC0"/>
<stop offset="0.17" stop-color="#3484A9"/>
<stop offset="0.26" stop-color="#2F6195"/>
<stop offset="0.35" stop-color="#2B4486"/>
<stop offset="0.44" stop-color="#282E79"/>
<stop offset="0.54" stop-color="#261E71"/>
<stop offset="0.66" stop-color="#24156C"/>
<stop offset="0.82" stop-color="#24126A"/>
</linearGradient>
<linearGradient id="paint34_linear_1_31" x1="2058.09" y1="4878.14" x2="2081.01" y2="5179.3" gradientUnits="userSpaceOnUse">
<stop stop-color="#2B237C"/>
<stop offset="1" stop-color="#180D5B"/>
</linearGradient>
<linearGradient id="paint35_linear_1_31" x1="14388.3" y1="14027.1" x2="14512.3" y2="17334.1" gradientUnits="userSpaceOnUse">
<stop stop-color="#91A2FA"/>
<stop offset="0.0199" stop-color="#91A2FA"/>
<stop offset="0.02" stop-color="#654DB3"/>
<stop offset="0.09" stop-color="#654DB3"/>
<stop offset="0.17" stop-color="#654DB3"/>
<stop offset="0.26" stop-color="#654CB3"/>
<stop offset="0.35" stop-color="#35068C"/>
<stop offset="0.44" stop-color="#35068C"/>
<stop offset="0.54" stop-color="#35068C"/>
<stop offset="0.66" stop-color="#35068C"/>
<stop offset="0.82" stop-color="#35068C"/>
</linearGradient>
</defs>
</svg>
